<?xml version="1.0" encoding="iso-8859-1"?>
<!-- Uploaded to: SVG Repo, www.svgrepo.com, Generator: SVG Repo Mixer Tools -->
<svg version="1.1" id="Layer_1" xmlns="http://www.w3.org/2000/svg" xmlns:xlink="http://www.w3.org/1999/xlink" 
	 viewBox="0 0 460 460" xml:space="preserve">
<g id="XMLID_851_">
	<path id="XMLID_852_" style="fill:#FFAE46;" d="M445.507,149.507C412.877,62.184,328.706,0,230,0C102.975,0,0,102.975,0,230
		c0,98.706,62.183,182.877,149.508,215.507L445.507,149.507z"/>
	<path id="XMLID_853_" style="fill:#FE843F;" d="M460,230c0-28.32-5.131-55.439-14.493-80.493L391,95L69,365l80.507,80.507
		C174.562,454.869,201.68,460,230,460C357.026,460,460,357.025,460,230z"/>
	<polygon id="XMLID_854_" style="fill:#ADEEFF;" points="149.5,335 159.5,350 149.5,365 69,365 69,335 109.25,325 	"/>
	<polygon id="XMLID_855_" style="fill:#7BE3FF;" points="230,335 240,350 230,365 149.5,365 149.5,335 189.75,325 	"/>
	<polygon id="XMLID_856_" style="fill:#ADEEFF;" points="310.5,335 320.5,350 310.5,365 230,365 230,335 270.25,325 	"/>
	<polygon id="XMLID_857_" style="fill:#7BE3FF;" points="391,335 391,365 310.5,365 310.5,335 350.75,325 	"/>
	<polygon id="XMLID_858_" style="fill:#FFFFFF;" points="149.5,95 159.5,230 149.5,335 69,335 69,95 	"/>
	<polygon id="XMLID_859_" style="fill:#E0F8FF;" points="230,95 240,230 230,335 149.5,335 149.5,95 	"/>
	<polygon id="XMLID_860_" style="fill:#FFFFFF;" points="310.5,95 320.5,230 310.5,335 230,335 230,95 	"/>
	<rect id="XMLID_861_" x="310.5" y="95" style="fill:#E0F8FF;" width="80.5" height="240"/>
	<polygon id="XMLID_862_" style="fill:#12398F;" points="310.5,95 320.5,162.5 310.5,230 287.5,230 287.5,95 	"/>
	<polygon id="XMLID_863_" style="fill:#12398F;" points="230,95 240,162.5 230,230 207,230 207,95 	"/>
	<polygon id="XMLID_864_" style="fill:#1D54BD;" points="149.5,95 159.5,162.5 149.5,230 126.5,230 126.5,95 	"/>
	<rect id="XMLID_865_" x="310.5" y="95" style="fill:#071E61;" width="23" height="135"/>
	<rect id="XMLID_866_" x="230" y="95" style="fill:#071E61;" width="23" height="135"/>
	<rect id="XMLID_867_" x="149.5" y="95" style="fill:#12398F;" width="23" height="135"/>
</g>
</svg>