<?xml version="1.0" encoding="iso-8859-1"?>
<!-- Uploaded to: SVG Repo, www.svgrepo.com, Generator: SVG Repo Mixer Tools -->
<svg version="1.1" id="Layer_1" xmlns="http://www.w3.org/2000/svg" xmlns:xlink="http://www.w3.org/1999/xlink" 
	 viewBox="0 0 460 460" xml:space="preserve">
<g id="XMLID_341_">
	<g id="XMLID_348_">
		<path id="XMLID_350_" style="fill:#FFC85F;" d="M230,0C102.974,0,0,102.975,0,230c0,98.105,61.431,181.849,147.919,214.903
			l297.452-295.754C412.644,62.013,328.57,0,230,0z"/>
	</g>
	<path id="XMLID_41_" style="fill:#FFAE46;" d="M81.508,378.492l66.411,66.411C173.414,454.647,201.08,460,230,460
		c127.026,0,230-102.975,230-230c0-28.456-5.182-55.697-14.629-80.852l-67.26-67.26L81.508,378.492z"/>
	<path id="XMLID_40_" style="fill:#FC5A37;" d="M190.131,156.858c1.688,19.847-5.048,40.277-20.235,55.465
		c-20.801,20.801-51.43,25.756-76.933,14.901c-4,2.949-7.834,6.226-11.455,9.847c-39.052,39.052-39.052,102.369,0,141.421
		l116.673-102.53l102.53-116.673C270.305,128.884,221.521,128.081,190.131,156.858z"/>
	<path id="XMLID_39_" style="fill:#DB3916;" d="M232.776,367.037c-10.854-25.503-5.9-56.132,14.901-76.933
		c15.188-15.188,35.617-21.924,55.465-20.235c28.777-31.39,27.974-80.174-2.431-110.579L81.508,378.492
		c39.052,39.052,102.369,39.052,141.421,0C226.55,374.871,229.827,371.037,232.776,367.037z"/>
	<path id="XMLID_38_" style="fill:#12398F;" d="M151.433,247.517l-40.958,28.679c6.336,9.048,18.806,11.247,27.855,4.911
		l40.958-28.679C172.952,243.38,160.48,241.182,151.433,247.517z"/>
	<path id="XMLID_37_" style="fill:#082947;" d="M212.483,308.567l-28.679,40.958c-9.048-6.336-11.247-18.806-4.912-27.855
		l28.679-40.958C216.62,287.048,218.818,299.52,212.483,308.567z"/>
	
		<rect id="XMLID_36_" x="306.538" y="100.172" transform="matrix(-0.7071 -0.7071 0.7071 -0.7071 470.996 415.4369)" style="fill:#082947;" width="30" height="20"/>
	
		<rect id="XMLID_35_" x="348.971" y="114.31" transform="matrix(-0.7071 -0.7071 0.7071 -0.7071 533.4373 469.5769)" style="fill:#082947;" width="30" height="20.001"/>
	<polygon id="XMLID_34_" style="fill:#12398F;" points="318.007,120.78 193.429,238.286 221.714,266.571 339.22,141.993 
		335.685,124.315 	"/>
	<path id="XMLID_33_" style="fill:#12398F;" d="M151.003,337.281l-28.284-28.284l-47.973,62.024
		c2.107,2.574,4.359,5.069,6.761,7.471s4.897,4.655,7.471,6.761L151.003,337.281z"/>
	<polygon id="XMLID_32_" style="fill:#DB3916;" points="367.505,113.709 339.22,141.993 318.007,120.78 346.291,92.495 
		363.969,96.031 	"/>
	
		<rect id="XMLID_3_" x="352.502" y="77.497" transform="matrix(-0.7071 0.7071 -0.7071 -0.7071 692.7693 -101.961)" style="fill:#FC5A37;" width="30" height="30"/>
</g>
</svg>